:SAMPLES-PER-SECOND 30
:FULLY-SPECIFIED
:DEGREES
19
root  7.56736 40.7752 -0.0636848 -173.705 -81.0008 172.027
RightUpLeg  0.0648959 -8.5963 -7.02633
RightLeg  7.68019 3.41591 2.81137
RightFoot  -5.57914 -0.0998213 1.22741
RightToes  0.00048216 0.542163 -0.142577
Spine  4.74711 0.833312 0.360022
Spine1  -0.798382 1.21426 -1.68254
HEad  2.41125 2.66788 -1.92193
LeftShoulder1  0.849302 -1.66452 -8.92532
LeftArm  -21.3163 15.605 -3.36217
LeftForeArm  7.21982 -3.90624 0.410069
LeftHand  -0.25398 0.0180481 5.50724
RightShoulder  0.738715 0.944608 9.23619
RightArm  -22.5849 -4.31288 6.07676
RightForeArm  -4.32221 6.80862 3.36897
RightHand  -2.12931 6.28807 -21.3257
LeftUpLeg  2.50285 4.43942 1.24548
LeftLeg  4.79282 14.5822 -2.59532
LeftFoot  -6.56206 0.0870151 -0.989887
LeftToes  1.06243e-005 4.65856e-005 -8.18505e-006
20
root  7.38013 40.7472 0.0478127 -174.319 -80.3162 172.434
RightUpLeg  0.130123 -8.63461 -7.18601
RightLeg  8.29368 4.17858 2.59984
RightFoot  -6.00237 -0.106011 1.39975
RightToes  0.00048216 0.542163 -0.142577
Spine  4.79753 0.683055 0.748055
Spine1  -0.435956 1.22398 -2.54447
HEad  4.28428 2.28264 -1.32578
LeftShoulder1  1.00764 -2.0661 -10.7754
LeftArm  -22.6164 17.1449 -2.95415
LeftForeArm  7.15074 -5.76864 0.832775
LeftHand  -0.25398 0.0180481 5.50724
RightShoulder  0.943786 1.67188 11.0525
RightArm  -21.6836 -6.07753 8.01329
RightForeArm  -7.84312 9.87918 4.26817
RightHand  -2.45227 7.16929 -22.805
LeftUpLeg  3.00827 4.50398 1.05731
LeftLeg  4.96627 15.1914 -2.60224
LeftFoot  -7.07293 0.081021 -0.910869
LeftToes  1.06243e-005 4.65856e-005 -8.18505e-006
21
root  7.17714 40.7029 0.1552 -174.637 -79.2217 172.505
RightUpLeg  -0.0479644 -8.56609 -7.34003
RightLeg  9.30299 5.23912 2.23391
RightFoot  -6.65415 -0.117194 1.76357
RightToes  0.00048216 0.542163 -0.142577
Spine  4.69057 0.786914 0.943402
Spine1  0.140946 1.46284 -3.26112
HEad  6.54304 1.58966 -0.845756
LeftShoulder1  1.16555 -2.39047 -12.638
LeftArm  -23.2901 18.5209 -3.29676
LeftForeArm  6.93387 -7.361 0.935487
LeftHand  -0.25398 0.0180481 5.50724
RightShoulder  1.21605 2.54923 13.1195
RightArm  -19.7422 -7.83135 10.1943
RightForeArm  -8.24952 12.1163 4.8817
RightHand  -2.46405 7.25052 -22.7534
LeftUpLeg  3.56777 4.55132 0.774324
LeftLeg  5.22866 16.2309 -2.62386
LeftFoot  -7.65919 0.0699195 -0.752187
LeftToes  1.06243e-005 4.65856e-005 -8.18505e-006
22
root  6.95746 40.6293 0.251801 -175.02 -77.7944 172.537
RightUpLeg  -0.491603 -7.86146 -7.32552
RightLeg  10.9009 5.99427 1.6496
RightFoot  -7.49573 -0.124227 2.1799
RightToes  0.00048216 0.542163 -0.142577
Spine  4.52193 1.13618 0.913113
Spine1  0.949698 1.87457 -3.61431
HEad  8.92628 0.714881 -0.844532
LeftShoulder1  1.3094 -2.60522 -14.4614
LeftArm  -22.9662 19.7536 -4.45762
LeftForeArm  7.68339 -8.51354 0.668771
LeftHand  -0.25398 0.0180481 5.50724
RightShoulder  1.52588 3.45943 15.1271
RightArm  -17.1389 -9.42007 12.6542
RightForeArm  -4.4904 13.1099 5.0683
RightHand  -2.18827 6.51979 -21.4813
LeftUpLeg  4.20142 4.74188 0.546518
LeftLeg  5.74106 17.3742 -2.68158
LeftFoot  -8.49777 0.07344 -0.915669
LeftToes  1.06243e-005 4.65856e-005 -8.18505e-006
23
root  6.73558 40.5274 0.338255 -175.863 -76.2941 172.83
RightUpLeg  -1.1787 -5.6752 -7.11077
RightLeg  13.3319 5.19467 1.03467
RightFoot  -8.29097 -0.119987 2.39318
RightToes  0.00048216 0.542163 -0.142577
Spine  4.6142 1.53549 0.80577
Spine1  1.94617 2.27408 -3.67492
HEad  10.8184 -0.0389359 -1.23801
LeftShoulder1  1.44622 -2.67645 -16.6027
LeftArm  -22.3445 20.7605 -6.17652
LeftForeArm  9.23103 -9.30232 0.31535
LeftHand  -0.25398 0.0180481 5.50724
RightShoulder  1.88667 4.33905 17.4598
RightArm  -14.289 -10.8028 15.0205
RightForeArm  1.77265 13.485 5.04893
RightHand  -1.89404 5.76333 -19.9143
LeftUpLeg  4.9833 5.20619 0.535346
LeftLeg  6.52329 18.2327 -2.788
LeftFoot  -9.58908 0.0802421 -1.5006
LeftToes  1.06243e-005 4.65856e-005 -8.18505e-006
24
root  6.52821 40.4125 0.419874 -177.098 -74.8142 173.407
RightUpLeg  -2.37925 -2.43695 -6.92441
RightLeg  16.8898 3.04052 0.710172
RightFoot  -8.67512 -0.12498 2.86063
RightToes  0.00048216 0.542163 -0.142577
Spine  5.07397 1.89989 0.792061
Spine1  3.05869 2.62141 -3.68779
HEad  11.8832 -0.572803 -1.72422
LeftShoulder1  1.63883 -2.78204 -19.4677
LeftArm  -22.4541 21.3016 -8.25898
LeftForeArm  9.99124 -9.57507 0.244636
LeftHand  -0.25398 0.0180481 5.50724
RightShoulder  2.31891 5.10343 20.5728
RightArm  -11.506 -12.0549 16.9117
RightForeArm  7.13906 13.879 5.03905
RightHand  -1.75164 5.56707 -18.7864
LeftUpLeg  5.77793 5.84295 0.694787
LeftLeg  7.53506 18.9429 -2.83749
LeftFoot  -10.737 0.0757527 -2.11254
LeftToes  1.06243e-005 4.65856e-005 -8.18505e-006
25
root  6.3371 40.3063 0.501515 -178.404 -73.3054 174.166
RightUpLeg  -4.51709 -0.609075 -6.90939
RightLeg  21.7673 1.99251 0.684809
RightFoot  -8.08335 -0.181513 4.38385
RightToes  0.00048216 0.542163 -0.142577
Spine  5.74088 2.25587 0.983259
Spine1  4.14742 2.98425 -3.78213
HEad  12.3268 -0.938232 -2.18221
LeftShoulder1  1.99674 -3.26084 -23.1149
LeftArm  -23.2957 21.1984 -10.5933
LeftForeArm  8.36935 -8.8554 0.50288
LeftHand  -0.25398 0.0180481 5.50724
RightShoulder  2.79773 5.71844 24.1785
RightArm  -9.41885 -13.4332 18.6465
RightForeArm  9.51103 14.1661 5.12807
RightHand  -1.72523 5.70447 -18.2913
LeftUpLeg  6.40025 6.42903 0.859569
LeftLeg  8.59111 19.8112 -2.73365
LeftFoot  -11.7608 0.0613292 -2.53014
LeftToes  1.06243e-005 4.65856e-005 -8.18505e-006
